<mxfile host="app.diagrams.net" agent="Mozilla/5.0 (Windows NT 10.0; Win64; x64) AppleWebKit/537.36 (KHTML, like Gecko) Chrome/136.0.0.0 Safari/537.36 Edg/136.0.0.0" version="27.0.6">
  <diagram name="第 1 页" id="wVJq5flQwe7w93qmlnUj">
    <mxGraphModel dx="1281" dy="624" grid="1" gridSize="10" guides="1" tooltips="1" connect="1" arrows="1" fold="1" page="1" pageScale="1" pageWidth="827" pageHeight="1169" math="0" shadow="0">
      <root>
        <mxCell id="0" />
        <mxCell id="1" parent="0" />
        <mxCell id="KXQBGTfyrhTatCau48XY-12" style="edgeStyle=orthogonalEdgeStyle;rounded=0;orthogonalLoop=1;jettySize=auto;html=1;exitX=1;exitY=0.5;exitDx=0;exitDy=0;exitPerimeter=0;entryX=0;entryY=0.5;entryDx=0;entryDy=0;" edge="1" parent="1" source="KXQBGTfyrhTatCau48XY-8" target="KXQBGTfyrhTatCau48XY-9">
          <mxGeometry relative="1" as="geometry" />
        </mxCell>
        <mxCell id="KXQBGTfyrhTatCau48XY-15" value="采集" style="edgeLabel;html=1;align=center;verticalAlign=middle;resizable=0;points=[];" vertex="1" connectable="0" parent="KXQBGTfyrhTatCau48XY-12">
          <mxGeometry x="-0.1032" y="2" relative="1" as="geometry">
            <mxPoint as="offset" />
          </mxGeometry>
        </mxCell>
        <mxCell id="KXQBGTfyrhTatCau48XY-8" value="边缘设备" style="strokeWidth=2;html=1;shape=mxgraph.flowchart.multi-document;whiteSpace=wrap;" vertex="1" parent="1">
          <mxGeometry x="70" y="220" width="88" height="60" as="geometry" />
        </mxCell>
        <mxCell id="KXQBGTfyrhTatCau48XY-13" style="edgeStyle=orthogonalEdgeStyle;rounded=0;orthogonalLoop=1;jettySize=auto;html=1;exitX=1;exitY=0.5;exitDx=0;exitDy=0;entryX=0;entryY=0.5;entryDx=0;entryDy=0;" edge="1" parent="1" source="KXQBGTfyrhTatCau48XY-9" target="KXQBGTfyrhTatCau48XY-10">
          <mxGeometry relative="1" as="geometry" />
        </mxCell>
        <mxCell id="KXQBGTfyrhTatCau48XY-16" value="pub" style="edgeLabel;html=1;align=center;verticalAlign=middle;resizable=0;points=[];" vertex="1" connectable="0" parent="KXQBGTfyrhTatCau48XY-13">
          <mxGeometry x="0.0514" y="3" relative="1" as="geometry">
            <mxPoint as="offset" />
          </mxGeometry>
        </mxCell>
        <mxCell id="KXQBGTfyrhTatCau48XY-9" value="边缘网关" style="rounded=0;whiteSpace=wrap;html=1;" vertex="1" parent="1">
          <mxGeometry x="220" y="220" width="90" height="60" as="geometry" />
        </mxCell>
        <mxCell id="KXQBGTfyrhTatCau48XY-14" style="edgeStyle=orthogonalEdgeStyle;rounded=0;orthogonalLoop=1;jettySize=auto;html=1;exitX=0.5;exitY=0;exitDx=0;exitDy=0;entryX=0.5;entryY=1;entryDx=0;entryDy=0;" edge="1" parent="1" source="KXQBGTfyrhTatCau48XY-10" target="KXQBGTfyrhTatCau48XY-11">
          <mxGeometry relative="1" as="geometry" />
        </mxCell>
        <mxCell id="KXQBGTfyrhTatCau48XY-17" value="sub" style="edgeLabel;html=1;align=center;verticalAlign=middle;resizable=0;points=[];" vertex="1" connectable="0" parent="KXQBGTfyrhTatCau48XY-14">
          <mxGeometry y="-2" relative="1" as="geometry">
            <mxPoint as="offset" />
          </mxGeometry>
        </mxCell>
        <mxCell id="KXQBGTfyrhTatCau48XY-21" style="edgeStyle=orthogonalEdgeStyle;rounded=0;orthogonalLoop=1;jettySize=auto;html=1;exitX=1;exitY=0.5;exitDx=0;exitDy=0;entryX=0;entryY=0.5;entryDx=0;entryDy=0;" edge="1" parent="1" source="KXQBGTfyrhTatCau48XY-10" target="KXQBGTfyrhTatCau48XY-18">
          <mxGeometry relative="1" as="geometry" />
        </mxCell>
        <mxCell id="KXQBGTfyrhTatCau48XY-41" value="转发" style="edgeLabel;html=1;align=center;verticalAlign=middle;resizable=0;points=[];" vertex="1" connectable="0" parent="KXQBGTfyrhTatCau48XY-21">
          <mxGeometry x="0.0933" y="4" relative="1" as="geometry">
            <mxPoint as="offset" />
          </mxGeometry>
        </mxCell>
        <mxCell id="KXQBGTfyrhTatCau48XY-10" value="mqtt Broker" style="rounded=0;whiteSpace=wrap;html=1;" vertex="1" parent="1">
          <mxGeometry x="380" y="220" width="120" height="60" as="geometry" />
        </mxCell>
        <mxCell id="KXQBGTfyrhTatCau48XY-33" style="edgeStyle=orthogonalEdgeStyle;rounded=0;orthogonalLoop=1;jettySize=auto;html=1;exitX=1;exitY=0.5;exitDx=0;exitDy=0;entryX=0;entryY=0.5;entryDx=0;entryDy=0;entryPerimeter=0;" edge="1" parent="1" source="KXQBGTfyrhTatCau48XY-11" target="KXQBGTfyrhTatCau48XY-49">
          <mxGeometry relative="1" as="geometry">
            <mxPoint x="560" y="130" as="targetPoint" />
            <Array as="points">
              <mxPoint x="530" y="130" />
              <mxPoint x="530" y="131" />
            </Array>
          </mxGeometry>
        </mxCell>
        <mxCell id="KXQBGTfyrhTatCau48XY-36" style="edgeStyle=orthogonalEdgeStyle;rounded=0;orthogonalLoop=1;jettySize=auto;html=1;exitX=0;exitY=0.5;exitDx=0;exitDy=0;entryX=1;entryY=0.5;entryDx=0;entryDy=0;" edge="1" parent="1" source="KXQBGTfyrhTatCau48XY-11" target="KXQBGTfyrhTatCau48XY-35">
          <mxGeometry relative="1" as="geometry" />
        </mxCell>
        <mxCell id="KXQBGTfyrhTatCau48XY-38" value="配置" style="edgeLabel;html=1;align=center;verticalAlign=middle;resizable=0;points=[];" vertex="1" connectable="0" parent="KXQBGTfyrhTatCau48XY-36">
          <mxGeometry x="0.0914" y="-4" relative="1" as="geometry">
            <mxPoint as="offset" />
          </mxGeometry>
        </mxCell>
        <mxCell id="KXQBGTfyrhTatCau48XY-11" value="IOT" style="rounded=0;whiteSpace=wrap;html=1;" vertex="1" parent="1">
          <mxGeometry x="380" y="100" width="120" height="60" as="geometry" />
        </mxCell>
        <mxCell id="KXQBGTfyrhTatCau48XY-18" value="kafka" style="rounded=0;whiteSpace=wrap;html=1;" vertex="1" parent="1">
          <mxGeometry x="560" y="220" width="120" height="60" as="geometry" />
        </mxCell>
        <mxCell id="KXQBGTfyrhTatCau48XY-28" style="edgeStyle=orthogonalEdgeStyle;rounded=0;orthogonalLoop=1;jettySize=auto;html=1;exitX=0.5;exitY=0;exitDx=0;exitDy=0;exitPerimeter=0;entryX=0.5;entryY=1;entryDx=0;entryDy=0;" edge="1" parent="1" source="KXQBGTfyrhTatCau48XY-19" target="KXQBGTfyrhTatCau48XY-25">
          <mxGeometry relative="1" as="geometry" />
        </mxCell>
        <mxCell id="KXQBGTfyrhTatCau48XY-30" style="edgeStyle=orthogonalEdgeStyle;rounded=0;orthogonalLoop=1;jettySize=auto;html=1;exitX=1;exitY=0.5;exitDx=0;exitDy=0;exitPerimeter=0;entryX=0;entryY=0.5;entryDx=0;entryDy=0;" edge="1" parent="1" source="KXQBGTfyrhTatCau48XY-19" target="KXQBGTfyrhTatCau48XY-20">
          <mxGeometry relative="1" as="geometry" />
        </mxCell>
        <mxCell id="KXQBGTfyrhTatCau48XY-19" value="doris" style="shape=cylinder3;whiteSpace=wrap;html=1;boundedLbl=1;backgroundOutline=1;size=15;" vertex="1" parent="1">
          <mxGeometry x="750" y="210" width="60" height="80" as="geometry" />
        </mxCell>
        <mxCell id="KXQBGTfyrhTatCau48XY-31" style="edgeStyle=orthogonalEdgeStyle;rounded=0;orthogonalLoop=1;jettySize=auto;html=1;exitX=0.5;exitY=0;exitDx=0;exitDy=0;entryX=1;entryY=0.5;entryDx=0;entryDy=0;" edge="1" parent="1" source="KXQBGTfyrhTatCau48XY-20" target="KXQBGTfyrhTatCau48XY-25">
          <mxGeometry relative="1" as="geometry" />
        </mxCell>
        <mxCell id="KXQBGTfyrhTatCau48XY-20" value="离线计算" style="rounded=0;whiteSpace=wrap;html=1;" vertex="1" parent="1">
          <mxGeometry x="860" y="220" width="120" height="60" as="geometry" />
        </mxCell>
        <mxCell id="KXQBGTfyrhTatCau48XY-22" style="edgeStyle=orthogonalEdgeStyle;rounded=0;orthogonalLoop=1;jettySize=auto;html=1;exitX=1;exitY=0.5;exitDx=0;exitDy=0;entryX=0;entryY=0.5;entryDx=0;entryDy=0;entryPerimeter=0;" edge="1" parent="1" source="KXQBGTfyrhTatCau48XY-18" target="KXQBGTfyrhTatCau48XY-19">
          <mxGeometry relative="1" as="geometry" />
        </mxCell>
        <mxCell id="KXQBGTfyrhTatCau48XY-32" style="edgeStyle=orthogonalEdgeStyle;rounded=0;orthogonalLoop=1;jettySize=auto;html=1;exitX=1;exitY=0.5;exitDx=0;exitDy=0;entryX=0;entryY=0.5;entryDx=0;entryDy=0;exitPerimeter=0;" edge="1" parent="1" source="KXQBGTfyrhTatCau48XY-49" target="KXQBGTfyrhTatCau48XY-25">
          <mxGeometry relative="1" as="geometry">
            <mxPoint x="680" y="130" as="sourcePoint" />
          </mxGeometry>
        </mxCell>
        <mxCell id="KXQBGTfyrhTatCau48XY-25" value="业务系统" style="rounded=0;whiteSpace=wrap;html=1;" vertex="1" parent="1">
          <mxGeometry x="720" y="100" width="120" height="60" as="geometry" />
        </mxCell>
        <mxCell id="KXQBGTfyrhTatCau48XY-37" style="edgeStyle=orthogonalEdgeStyle;rounded=0;orthogonalLoop=1;jettySize=auto;html=1;exitX=0.5;exitY=1;exitDx=0;exitDy=0;entryX=0.5;entryY=0;entryDx=0;entryDy=0;" edge="1" parent="1" source="KXQBGTfyrhTatCau48XY-35" target="KXQBGTfyrhTatCau48XY-9">
          <mxGeometry relative="1" as="geometry" />
        </mxCell>
        <mxCell id="KXQBGTfyrhTatCau48XY-35" value="zk" style="rounded=0;whiteSpace=wrap;html=1;" vertex="1" parent="1">
          <mxGeometry x="220" y="100" width="90" height="60" as="geometry" />
        </mxCell>
        <mxCell id="KXQBGTfyrhTatCau48XY-45" value="" style="endArrow=none;dashed=1;html=1;rounded=0;" edge="1" parent="1">
          <mxGeometry width="50" height="50" relative="1" as="geometry">
            <mxPoint x="110" y="390" as="sourcePoint" />
            <mxPoint x="110" y="290" as="targetPoint" />
          </mxGeometry>
        </mxCell>
        <mxCell id="KXQBGTfyrhTatCau48XY-46" value="方法1：模拟边缘设备" style="text;html=1;align=center;verticalAlign=middle;resizable=0;points=[];autosize=1;strokeColor=none;fillColor=none;" vertex="1" parent="1">
          <mxGeometry x="44" y="398" width="140" height="30" as="geometry" />
        </mxCell>
        <mxCell id="KXQBGTfyrhTatCau48XY-47" value="" style="endArrow=none;dashed=1;html=1;rounded=0;" edge="1" parent="1">
          <mxGeometry width="50" height="50" relative="1" as="geometry">
            <mxPoint x="446" y="390" as="sourcePoint" />
            <mxPoint x="446" y="290" as="targetPoint" />
          </mxGeometry>
        </mxCell>
        <mxCell id="KXQBGTfyrhTatCau48XY-48" value="方法2：直接向mqtt推送数据" style="text;html=1;align=center;verticalAlign=middle;resizable=0;points=[];autosize=1;strokeColor=none;fillColor=none;" vertex="1" parent="1">
          <mxGeometry x="365" y="398" width="170" height="30" as="geometry" />
        </mxCell>
        <mxCell id="KXQBGTfyrhTatCau48XY-49" value="postgres" style="shape=cylinder3;whiteSpace=wrap;html=1;boundedLbl=1;backgroundOutline=1;size=15;" vertex="1" parent="1">
          <mxGeometry x="590" y="90" width="60" height="80" as="geometry" />
        </mxCell>
      </root>
    </mxGraphModel>
  </diagram>
</mxfile>
